<?xml version="1.0" encoding="UTF-8"?>
<svg id="Capa_1" data-name="Capa 1" xmlns="http://www.w3.org/2000/svg" viewBox="0 0 2717.46 453.41">
  <defs>
    <style>
      .cls-1 {
        fill: #ffffff;
      }

      .cls-2 {
        fill: #dc2319;
      }
    </style>
  </defs>
  <path class="cls-1" d="M1651.06,365.56c-21.71,0-40.51-4.4-56.22-13.28-15.82-8.86-23.67-16.73-23.67-23.65,0-3.14,1.18-6,3.58-8.58,2.4-2.58,5.02-3.86,7.9-3.86,3.04,0,6.3,1.46,9.8,4.32,17.85,14.7,37.39,22.05,58.62,22.05,16.83,0,30.31-4.56,40.41-13.64,10.1-9.14,15.18-21.59,15.18-37.43,0-9.56-2.24-17.53-6.7-23.91-4.44-6.44-10.18-11.5-17.13-15.18-6.98-3.72-18.89-8.14-35.73-13.32-19.29-5.62-33.39-11.26-42.23-16.85-8.78-5.54-15.72-12.9-20.71-21.97-5-9.02-7.52-20.13-7.52-33.35,0-21.19,7.52-38.43,22.51-51.62,15.02-13.18,33.57-19.75,55.66-19.75,19.15,0,35.97,4.28,50.62,12.8,14.64,8.54,21.95,16.22,21.95,22.99,0,3.12-1.18,5.94-3.5,8.4-2.32,2.44-5.14,3.66-8.38,3.66-2.04,0-3.68-.46-4.98-1.44-1.34-.9-3.22-2.4-5.8-4.42-10-7.52-18.79-12.52-26.21-15.08-7.5-2.48-15.38-3.76-23.71-3.76-16.55,0-29.67,4.4-39.35,13.22-9.68,8.78-14.5,20.47-14.5,35.01,0,9.2,2,16.73,6.1,22.71,4.1,5.98,9.38,10.74,15.93,14.26,6.52,3.5,17.25,7.4,32.21,11.68,30.39,8.66,50.62,19.05,60.68,31.09,10.04,12.04,15.08,26.99,15.08,44.85,0,22.11-7.54,39.99-22.53,53.6-15,13.66-34.13,20.45-57.36,20.45"/>
  <path class="cls-1" d="M1885.94,248.35c0-19.09-4.68-34.61-14.02-46.55-9.36-11.94-22.25-17.91-38.73-17.91s-31.33,5.88-42.41,17.61c-11.06,11.78-17.25,27.35-18.67,46.85h113.82ZM1771.37,270.76c0,21.01,6.06,38.25,18.11,51.84,12.06,13.56,27.37,20.33,45.97,20.33,7.94,0,15.97-1.32,24.13-3.86,8.16-2.58,15.22-5.82,21.13-9.7,4-2.62,6.94-3.96,8.82-3.96,3.02,0,5.58,1.34,7.62,3.96,2.08,2.62,3.12,5.44,3.12,8.46,0,5.68-6.76,11.7-20.23,18.13-13.54,6.36-28.51,9.58-44.93,9.58-27.01,0-48.46-9.1-64.3-27.35-15.82-18.15-23.73-42.51-23.73-72.88s7.82-55.06,23.35-74.74c15.57-19.65,36.75-29.49,63.52-29.49,23.61,0,42.15,7.94,55.66,23.83,13.52,15.93,20.27,37.15,20.27,63.8,0,7.16-1.62,12.62-4.82,16.41-3.16,3.74-7.62,5.62-13.28,5.62h-120.42Z"/>
  <path class="cls-1" d="M2068.16,244.41c0-17.85-5.24-32.39-15.79-43.65-10.58-11.24-23.97-16.87-40.17-16.87-18.31,0-33.03,6.92-44.09,20.83-11.06,13.88-16.59,33.33-16.59,58.3s5.34,44.45,16.04,58.62c10.72,14.2,25.59,21.29,44.65,21.29,16.71,0,30.27-5.76,40.53-17.23,10.28-11.52,15.43-26.11,15.43-43.81v-37.49ZM2092.09,344.06c0,32.91-7.5,57.7-22.41,74.26-14.92,16.58-36.83,24.87-65.52,24.87-13.88,0-27.89-3.02-42.07-9.06-14.22-6.02-21.27-12-21.27-17.89,0-3.88,1.02-7.08,3.22-9.52,2.08-2.44,4.36-3.66,6.74-3.66s5.96,1.42,10.78,4.32c8.52,4.76,15.94,8.14,22.29,10.1,6.32,1.92,13.36,2.9,21.01,2.9,21.11,0,36.93-5.88,47.51-17.57,10.56-11.8,15.79-29.43,15.79-52.9v-18.65c-5.56,10.56-13.4,18.91-23.63,25.07-10.26,6.14-21.97,9.24-35.13,9.24-24.89,0-44.77-9.12-59.56-27.41-14.84-18.29-22.23-43.33-22.23-75.12s7.62-56.52,22.89-74.72c15.32-18.13,35.85-27.23,61.7-27.23,11.96,0,22.77,2.64,32.53,7.84,9.72,5.22,17.53,12.66,23.43,22.33v-15.83c0-7.78,4.1-11.66,12.26-11.66s11.68,3.88,11.68,11.66v168.65Z"/>
  <path class="cls-1" d="M2275.22,351.05c0,7.9-4.02,11.86-12.1,11.86s-11.82-3.96-11.82-11.86v-20.53c-6.96,11.68-15.68,20.41-26.13,26.27-10.5,5.84-22.77,8.76-36.83,8.76-21.37,0-37.83-6.52-49.46-19.61-11.64-13.04-17.41-30.81-17.41-53.3v-116.82c0-8.06,3.86-12.06,11.68-12.06s12.22,4,12.22,12.06v115.3c0,15.71,4.06,28.29,12.14,37.69,8.14,9.42,19.53,14.14,34.25,14.14,18.45,0,33.01-6.2,43.63-18.55,10.62-12.4,15.93-28.71,15.93-49.06v-99.51c0-8.06,3.96-12.06,11.82-12.06s12.1,4,12.1,12.06v175.25Z"/>
  <path class="cls-1" d="M2328.19,188.8c5.04-9.16,11.44-16.07,19.33-20.71,7.84-4.68,17.13-7.02,27.97-7.02,9.44,0,16.43,1.32,20.99,3.92,4.6,2.58,6.88,5.8,6.88,9.72,0,3.26-.68,6.1-2.16,8.56-1.44,2.44-3.54,3.64-6.32,3.64-1.6,0-3.6-.36-5.78-1.1-4.34-1.28-8.94-1.9-13.98-1.9-14.22,0-25.59,5.04-34.11,15.1-8.58,10.04-12.84,23.29-12.84,39.75v112.29c0,7.94-3.98,11.9-12.08,11.9s-11.86-3.96-11.86-11.9v-175.61c0-7.8,3.98-11.66,11.86-11.66s12.08,3.86,12.08,11.66v13.38Z"/>
  <path class="cls-1" d="M2482.36,183.89c-17.61,0-32.37,6.62-44.29,19.81-11.94,13.18-17.91,33.09-17.91,59.72s6.26,46.23,18.75,59.54c12.52,13.32,27.01,19.97,43.45,19.97s31.13-6.66,43.71-19.97c12.58-13.32,18.89-33.15,18.89-59.54s-5.9-45.93-17.65-59.36c-11.76-13.46-26.77-20.17-44.95-20.17M2482.36,365.56c-25.27,0-45.93-9.2-62-27.61-16.06-18.37-24.11-43.25-24.11-74.52s8.06-57.74,24.11-75.56c16.07-17.85,36.73-26.81,62-26.81s46.31,9.08,62.38,27.21c16.07,18.05,24.11,43.11,24.11,75.16s-8.08,55.94-24.21,74.42c-16.15,18.47-36.89,27.71-62.28,27.71"/>
  <path class="cls-1" d="M2647.52,365.56c-10.14,0-19.39-1.06-27.75-3.2-8.38-2.16-16.53-5.52-24.61-10.08-8.02-4.58-12.88-8.02-14.52-10.28-1.64-2.28-2.42-4.76-2.42-7.58,0-3.1,1.06-5.92,3.28-8.34,2.2-2.48,4.66-3.68,7.46-3.68,3.14,0,6.2,1.16,9.2,3.58,6.44,4.9,14.12,8.96,23.11,12.16,8.98,3.2,17.71,4.8,26.25,4.8,14.48,0,25.75-2.96,33.85-8.84,8.12-5.92,12.18-13.94,12.18-23.97,0-9.16-3.24-16.17-9.62-21.05-6.42-4.92-15.06-8.56-25.81-10.98-17.63-3.64-30.33-6.64-38.19-9.02-7.84-2.38-14.6-5.72-20.23-9.92-5.7-4.2-10.18-9.52-13.46-16.01-3.36-6.44-5.04-14.67-5.04-24.59,0-16.94,6.56-30.77,19.67-41.45,13.16-10.66,29.87-16.06,50.22-16.06,14.96,0,28.91,3.04,41.87,9,12.96,5.98,19.37,11.94,19.37,17.99,0,3-1.1,5.96-3.46,8.84-2.32,2.92-4.88,4.38-7.6,4.38s-5.76-1.32-9.26-3.8c-13.2-9.06-26.95-13.58-41.29-13.58s-25.95,3.14-33.81,9.34c-7.84,6.22-11.8,14.16-11.8,23.83,0,7.4,1.96,13.5,5.86,18.17,3.88,4.74,9.02,8.3,15.46,10.76,6.42,2.46,18.01,5.48,34.85,9.14,22.37,4.78,37.37,11.46,44.83,19.97,7.58,8.54,11.34,19.67,11.34,33.35,0,16.33-6.22,29.95-18.75,40.79-12.5,10.9-29.55,16.32-51.18,16.32"/>
  <path class="cls-1" d="M787.66,314.09c0,10.22-2.82,18.59-8.3,25.15-5.58,6.58-15.88,12.76-31.07,18.63-15.12,5.84-32.99,8.76-53.64,8.76-36.59,0-65.66-12-87.29-36.01-21.59-24.01-32.41-56.5-32.41-97.47s11.56-75.36,34.65-100.21c23.19-24.83,52.64-37.25,88.45-37.25,19.79,0,35.99,2.34,48.68,6.98,12.68,4.68,21.95,9.36,27.77,14.02,5.88,4.66,8.78,9.64,8.78,14.93s-1.86,10.54-5.62,15.3c-3.78,4.8-8.08,7.22-12.9,7.22-4.14,0-8.82-1.4-13.98-4.16-18.27-9.36-35.41-14.02-51.42-14.02-24.09,0-43.59,8.56-58.5,25.71-14.96,17.15-22.45,40.75-22.45,70.74s7.16,53.02,21.47,69.36c14.3,16.4,34.37,24.59,60.22,24.59,9.06,0,17.63-1.2,25.69-3.54,8.1-2.42,13.2-4.7,15.26-6.86,2.04-2.14,3.14-5.22,3.14-9.28v-49.88h-43.39c-6.6,0-11.56-1.42-14.68-4.26-3.14-2.86-4.72-8.3-4.72-16.35,0-7.08,1.58-12.1,4.72-15.14,3.12-3.02,8.32-4.56,15.5-4.56h64.66c14.28,0,21.37,6.58,21.37,19.69v77.9Z"/>
  <path class="cls-1" d="M859.04,348.12c0,11.86-7.22,17.77-21.73,17.77s-21.01-5.92-21.01-17.77V112.88c0-6.06,1.64-10.42,4.9-13.06,3.32-2.66,8.8-3.98,16.49-3.98s13,1.34,16.33,4.06c3.34,2.74,5.02,7.04,5.02,12.98v235.25Z"/>
  <path class="cls-1" d="M976.29,200.24c-15.76,0-27.87,5.82-36.23,17.41-8.38,11.6-12.56,26.95-12.56,46.11s4.24,34.35,12.76,46.37c8.52,11.96,20.51,17.91,36.03,17.91s28.35-5.66,36.65-16.99c8.32-11.36,12.5-27.09,12.5-47.29s-4.08-37.03-12.3-47.59c-8.2-10.64-20.47-15.93-36.85-15.93M976.29,366.63c-28.27,0-50.58-9.54-67.04-28.63-16.43-19.07-24.67-43.87-24.67-74.24s8.2-55.3,24.61-74.1c16.31-18.77,38.73-28.17,67.1-28.17s51.28,9.32,67.68,27.99c16.39,18.65,24.61,43.41,24.61,74.28s-8.28,55.64-24.79,74.52c-16.53,18.91-39.01,28.35-67.5,28.35"/>
  <path class="cls-1" d="M1136.65,280.08c0,13.48,3.78,24.81,11.4,34.11,7.66,9.24,18.05,13.86,31.17,13.86,14.34,0,25.63-5.7,33.81-17.07,8.2-11.4,12.28-27.15,12.28-47.18s-4.02-34.97-12.08-46.43c-8.08-11.38-19.43-17.13-34.01-17.13-12.92,0-23.19,4.56-30.95,13.56-7.76,9.02-11.62,20.51-11.62,34.51v31.79ZM1114.52,365.91c-7.82,0-13.22-1.46-16.17-4.28-2.96-2.82-4.44-7.34-4.44-13.52V113.65c0-6.24,1.6-10.72,4.84-13.54,3.2-2.88,8.6-4.26,16.16-4.26s13.4,1.38,16.71,4.26c3.34,2.82,5.04,7.3,5.04,13.54v73.38c12-17.03,28.35-25.55,49.16-25.55,25.07,0,45.07,9.36,60.02,28.01,14.96,18.63,22.41,43.43,22.41,74.3s-7.18,56.54-21.55,75.1c-14.38,18.49-33.43,27.77-57.14,27.77s-42.05-9.14-52.9-27.41M1136.65,339.24v10.04c0,11.08-7.38,16.63-22.13,16.63"/>
  <path class="cls-1" d="M1419.18,248.27c0-13.84-3.86-25.37-11.64-34.39-7.76-9.08-18.03-13.66-30.91-13.66-14.66,0-25.95,5.8-34.03,17.25-8.04,11.46-12.12,26.93-12.12,46.29,0,20.31,4.12,36.13,12.32,47.36,8.2,11.3,19.49,16.93,33.83,16.93,13.12,0,23.45-4.58,31.11-13.78,7.62-9.22,11.44-20.63,11.44-34.23v-31.79ZM1419.18,338.11c-10.32,19.03-28.03,28.55-53.1,28.55-23.59,0-42.57-9.26-56.94-27.79-14.36-18.55-21.55-43.57-21.55-75.1s7.46-55.8,22.37-74.36c14.98-18.59,34.97-27.91,60.06-27.91,21.67,0,38.07,8.5,49.16,25.51v-7c0-11.84,7.26-17.75,21.73-17.75,7.32,0,12.64,1.4,15.92,4.26,3.26,2.82,4.9,7.36,4.9,13.5v168.11c0,6.3-1.54,10.84-4.54,13.62-3.02,2.74-8.68,4.18-16.99,4.18-14.02,0-21.01-5.58-21.01-16.65v-11.16Z"/>
  <path class="cls-1" d="M1533.44,348.12c0,11.86-7.22,17.77-21.75,17.77s-20.97-5.92-20.97-17.77V112.88c0-6.06,1.64-10.42,4.92-13.06,3.28-2.66,8.78-3.98,16.43-3.98s13.06,1.34,16.37,4.06c3.32,2.74,5,7.04,5,12.98v235.25Z"/>
  <path class="cls-1" d="M131.3,35.58c-1.4-4.44,1.02-9.22,5.5-10.66.5-.16,39.33-12.8,87.49-12.8,4.72,0,8.46,3.84,8.46,8.5s-3.74,8.48-8.46,8.48c-33.91,0-63.54,6.8-75.96,10.14-4.18,1.18-6.34,1.78-6.34,1.78l-2.58.44c-3.56,0-6.94-2.26-8.12-5.88"/>
  <path class="cls-1" d="M52.54,93.3c-.9-4.6,2-9.08,6.6-10.02.32-.06,88.91-18.75,165.15-18.75,4.72,0,8.48,3.82,8.48,8.5s-3.76,8.52-8.48,8.52c-36.75,0-77.32,4.56-108.59,9.18-31.25,4.58-53,9.14-53,9.14l-.04.02-1.76.18c-3.94,0-7.5-2.7-8.36-6.76"/>
  <path class="cls-1" d="M16.84,149.9c-.7-4.64,2.5-8.96,7.16-9.7.2-.02,102.77-15.72,200.28-15.72,4.72,0,8.48,3.86,8.48,8.54s-3.76,8.5-8.48,8.5c-47.89,0-97.39,3.86-134.88,7.78-37.49,3.9-62.84,7.7-62.84,7.7l-1.32.12c-4.1,0-7.78-3.02-8.4-7.22"/>
  <path class="cls-1" d="M.03,206.35c-.4-4.66,3.1-8.8,7.8-9.14.12,0,96.49-7.76,216.45-7.76,4.72,0,8.48,3.82,8.48,8.52s-3.76,8.44-8.48,8.44c-59.66,0-113.42,1.94-152.37,3.86-38.83,1.94-62.68,3.88-62.68,3.88h-.08l-.62.02c-4.42,0-8.16-3.36-8.5-7.82"/>
  <path class="cls-1" d="M136.81,440.65c-4.5-1.42-6.98-6.22-5.48-10.7,1.46-4.48,6.18-6.96,10.68-5.48,0,0,2.14.7,6.32,1.78,4.14,1.18,10.2,2.64,17.69,4.14,14.96,3.04,35.69,6.04,58.26,6.02v.02c4.72,0,8.48,3.8,8.48,8.5s-3.76,8.48-8.48,8.48c-48.14-.02-87.01-12.64-87.47-12.76"/>
  <path class="cls-1" d="M58.86,382.19c-4.58-1.1-7.34-5.68-6.24-10.26,1.12-4.56,5.7-7.36,10.28-6.18,0,0,4.52,1.06,12.84,2.76,8.32,1.72,20.31,4.02,35.13,6.34,29.49,4.6,70,9.16,113.42,9.16,4.72,0,8.46,3.8,8.46,8.54s-3.74,8.48-8.46,8.48c-89.27-.02-165.03-18.75-165.43-18.83"/>
  <path class="cls-1" d="M23.83,325.28c-4.66-.76-7.74-5.12-6.96-9.74.78-4.68,5.16-7.82,9.78-7,0,0,22.83,3.82,59.08,7.72,36.23,3.9,85.71,7.78,138.54,7.78,4.74,0,8.48,3.82,8.48,8.48s-3.74,8.5-8.48,8.5c-107.27,0-200.16-15.69-200.44-15.73"/>
  <path class="cls-1" d="M7.75,268.34c-4.64-.36-8.1-4.5-7.72-9.18.38-4.68,4.52-8.12,9.12-7.76.16,0,23.13,1.92,61.58,3.86,38.45,1.92,92.33,3.86,153.55,3.86,4.72,0,8.48,3.8,8.48,8.48s-3.76,8.52-8.48,8.52c-123.28,0-216.33-7.78-216.53-7.78"/>
  <path class="cls-1" d="M306.52,41.05s-2.18-.64-6.28-1.8c-4.18-1.12-10.2-2.62-17.71-4.12-14.98-3-35.63-6.06-58.22-6.06-4.72,0-8.54-3.74-8.54-8.44s3.82-8.5,8.54-8.5c48.12,0,86.93,12.62,87.47,12.76,4.42,1.48,6.88,6.26,5.48,10.7-1.24,3.6-4.52,5.88-8.16,5.88l-2.58-.42Z"/>
  <path class="cls-1" d="M385.91,99.88s-21.83-4.58-53.08-9.14c-31.23-4.66-71.8-9.2-108.55-9.2-4.66,0-8.52-3.82-8.52-8.5s3.86-8.5,8.52-8.5c76.24,0,164.83,18.65,165.11,18.73,4.6.92,7.58,5.42,6.56,10.04-.82,4.04-4.34,6.72-8.24,6.72l-1.8-.16Z"/>
  <path class="cls-1" d="M422.03,157.03s-25.39-3.86-62.88-7.8c-37.51-3.82-87.03-7.7-134.86-7.7-4.7,0-8.52-3.84-8.52-8.5s3.82-8.52,8.52-8.52c97.45,0,200.04,15.68,200.32,15.7,4.62.72,7.82,5.02,7.06,9.68-.66,4.2-4.24,7.24-8.38,7.24l-1.26-.1Z"/>
  <path class="cls-1" d="M439.33,214.14s-23.85-1.96-62.72-3.82c-38.89-1.94-92.69-3.92-152.33-3.92-4.68,0-8.52-3.78-8.52-8.44s3.84-8.52,8.52-8.52c119.96,0,216.33,7.76,216.33,7.76h.08c4.7.38,8.22,4.48,7.82,9.14-.36,4.46-4.08,7.82-8.48,7.82l-.7-.02Z"/>
  <path class="cls-1" d="M215.77,444.93c0-4.7,3.82-8.48,8.52-8.48,33.87.02,63.5-6.82,75.96-10.18,4.14-1.12,6.24-1.78,6.24-1.78h.04c4.5-1.48,9.26,1,10.74,5.46,1.4,4.46-1.06,9.28-5.46,10.72-.56.12-39.35,12.74-87.51,12.74-4.7,0-8.52-3.82-8.52-8.48"/>
  <path class="cls-1" d="M215.77,392.5c0-4.68,3.82-8.5,8.52-8.5,65.18,0,123.54-10.3,148.53-15.44,8.32-1.74,12.82-2.84,12.82-2.84,4.58-1.14,9.18,1.66,10.28,6.22,1.08,4.52-1.64,9.16-6.22,10.24-.38.1-76.18,18.85-165.41,18.85-4.7,0-8.52-3.88-8.52-8.54"/>
  <path class="cls-1" d="M215.77,332.52c0-4.72,3.82-8.5,8.52-8.5,52.82,0,102.31-3.86,138.54-7.78,36.21-3.88,59.02-7.7,59.02-7.7h.04c4.62-.82,9.02,2.32,9.84,6.98.7,4.6-2.38,9-7.04,9.76-.26.06-93.13,15.73-200.4,15.73-4.7,0-8.52-3.84-8.52-8.5"/>
  <path class="cls-1" d="M215.77,267.6c0-4.7,3.82-8.5,8.52-8.5,61.24,0,115.08-1.92,153.53-3.86,38.47-1.9,61.44-3.82,61.44-3.82h.08c4.72-.38,8.8,3.06,9.18,7.76.38,4.66-3.1,8.78-7.8,9.18,0,0-93.19,7.76-216.43,7.76-4.7,0-8.52-3.86-8.52-8.52"/>
  <path class="cls-2" d="M117.09,293.63c-3.74-12.78-1.02-18.95,7.3-26.05,9.02-7.68,28.87-21.39,41.59-29.39,6.46-4.12,13.48-2.52,16.01,3,4.02,8.86,14.96,38.97,24.85,68,2.92,8.66,9.4,8.28,13.5,0,56.86-113.84,121.4-218.71,179.36-280.99,9.84-10.7,13.56-13.78,22.49-16.11,8.82-2.28,29.71-8,51.42-11.88,9.02-1.54,14.68,6.12,8.64,13.46-59.1,72.82-166.13,257.54-231.55,392.44-4.9,10.16-10.8,13.06-21.51,13.06-11.5,0-50.24-3.32-50.24-3.32-8.32.1-14.72-3.16-18.23-11.12-15.16-34.07-43.63-111.09-43.63-111.09"/>
</svg>